<mxfile host="65bd71144e">
    <diagram id="mtFdcSvoKdh9C-5KIGSu" name="Page-1">
        <mxGraphModel dx="1056" dy="551" grid="0" gridSize="10" guides="1" tooltips="1" connect="1" arrows="1" fold="1" page="1" pageScale="1" pageWidth="1200" pageHeight="1100" background="#ffffff" math="0" shadow="0">
            <root>
                <mxCell id="0"/>
                <mxCell id="1" parent="0"/>
                <mxCell id="2" value="VS Code and notebooks" style="rounded=0;whiteSpace=wrap;html=1;fillColor=#f5f5f5;fontColor=#333333;strokeColor=#666666;" parent="1" vertex="1">
                    <mxGeometry x="407" y="157" width="120" height="60" as="geometry"/>
                </mxCell>
                <mxCell id="3" value="prototype" style="text;html=1;strokeColor=none;fillColor=none;align=center;verticalAlign=middle;whiteSpace=wrap;rounded=0;fontColor=#333333;" parent="1" vertex="1">
                    <mxGeometry x="236" y="230" width="60" height="30" as="geometry"/>
                </mxCell>
                <mxCell id="5" value="dev catalog&amp;nbsp;&lt;div&gt;(config.ini)&lt;/div&gt;" style="rounded=0;whiteSpace=wrap;html=1;fillColor=#f5f5f5;fontColor=#333333;strokeColor=#666666;" parent="1" vertex="1">
                    <mxGeometry x="407" y="305" width="120" height="60" as="geometry"/>
                </mxCell>
                <mxCell id="6" value="stage catalog" style="rounded=0;whiteSpace=wrap;html=1;fillColor=#f5f5f5;fontColor=#333333;strokeColor=#666666;" parent="1" vertex="1">
                    <mxGeometry x="407" y="423" width="120" height="60" as="geometry"/>
                </mxCell>
                <mxCell id="8" value="prod catalog" style="rounded=0;whiteSpace=wrap;html=1;fillColor=#f5f5f5;fontColor=#333333;strokeColor=#666666;" parent="1" vertex="1">
                    <mxGeometry x="407" y="540" width="120" height="60" as="geometry"/>
                </mxCell>
                <mxCell id="9" value="" style="endArrow=classic;html=1;fillColor=#f5f5f5;strokeColor=#666666;" parent="1" edge="1">
                    <mxGeometry width="50" height="50" relative="1" as="geometry">
                        <mxPoint x="222" y="436" as="sourcePoint"/>
                        <mxPoint x="372" y="456" as="targetPoint"/>
                    </mxGeometry>
                </mxCell>
                <mxCell id="10" value="" style="endArrow=classic;html=1;fillColor=#f5f5f5;strokeColor=#666666;" parent="1" edge="1">
                    <mxGeometry width="50" height="50" relative="1" as="geometry">
                        <mxPoint x="227" y="365" as="sourcePoint"/>
                        <mxPoint x="387" y="340" as="targetPoint"/>
                    </mxGeometry>
                </mxCell>
                <mxCell id="11" value="" style="endArrow=classic;html=1;fillColor=#f5f5f5;strokeColor=#666666;" parent="1" edge="1">
                    <mxGeometry width="50" height="50" relative="1" as="geometry">
                        <mxPoint x="217" y="310" as="sourcePoint"/>
                        <mxPoint x="377" y="220" as="targetPoint"/>
                    </mxGeometry>
                </mxCell>
                <mxCell id="12" value="make &lt;br&gt;deploy-dev" style="text;html=1;align=center;verticalAlign=middle;resizable=0;points=[];autosize=1;strokeColor=none;fillColor=none;fontColor=#333333;" parent="1" vertex="1">
                    <mxGeometry x="257" y="305" width="80" height="40" as="geometry"/>
                </mxCell>
                <mxCell id="13" value="&lt;div style=&quot;text-align: left;&quot;&gt;&lt;span style=&quot;background-color: initial;&quot;&gt;open PR&lt;/span&gt;&lt;/div&gt;&lt;div style=&quot;text-align: left;&quot;&gt;&lt;span style=&quot;background-color: initial;&quot;&gt;for every push:&lt;/span&gt;&lt;/div&gt;&lt;div style=&quot;text-align: left;&quot;&gt;&lt;span style=&quot;background-color: initial;&quot;&gt;&amp;nbsp; - run unit tests&lt;/span&gt;&lt;/div&gt;&lt;div style=&quot;text-align: left;&quot;&gt;&lt;span style=&quot;background-color: initial;&quot;&gt;&amp;nbsp; - deploy and run workflow&lt;/span&gt;&lt;/div&gt;" style="text;html=1;align=center;verticalAlign=middle;resizable=0;points=[];autosize=1;strokeColor=none;fillColor=none;fontColor=#333333;" parent="1" vertex="1">
                    <mxGeometry x="238" y="374" width="170" height="70" as="geometry"/>
                </mxCell>
                <mxCell id="14" value="&lt;div style=&quot;text-align: left;&quot;&gt;PR approved&lt;/div&gt;" style="text;html=1;align=center;verticalAlign=middle;resizable=0;points=[];autosize=1;strokeColor=none;fillColor=none;fontColor=#333333;" parent="1" vertex="1">
                    <mxGeometry x="257" y="483" width="90" height="30" as="geometry"/>
                </mxCell>
                <mxCell id="15" value="" style="endArrow=classic;html=1;fillColor=#f5f5f5;strokeColor=#666666;" parent="1" edge="1">
                    <mxGeometry width="50" height="50" relative="1" as="geometry">
                        <mxPoint x="217" y="490" as="sourcePoint"/>
                        <mxPoint x="367" y="560" as="targetPoint"/>
                    </mxGeometry>
                </mxCell>
                <mxCell id="18" value="" style="outlineConnect=0;dashed=0;verticalLabelPosition=bottom;verticalAlign=top;align=center;html=1;shape=mxgraph.aws3.user;fillColor=#D2D3D3;gradientColor=none;" parent="1" vertex="1">
                    <mxGeometry x="117" y="355" width="45" height="63" as="geometry"/>
                </mxCell>
                <mxCell id="20" value="" style="shape=curlyBracket;whiteSpace=wrap;html=1;rounded=1;flipH=1;labelPosition=right;verticalLabelPosition=middle;align=left;verticalAlign=middle;fillColor=#60a917;fontColor=#ffffff;strokeColor=#2D7600;" parent="1" vertex="1">
                    <mxGeometry x="582" y="291" width="20" height="295" as="geometry"/>
                </mxCell>
                <mxCell id="24" value="Skip tasks with system.config table" style="text;html=1;align=center;verticalAlign=middle;resizable=0;points=[];autosize=1;fontColor=#000000;" parent="1" vertex="1">
                    <mxGeometry x="622" y="425.5" width="203" height="26" as="geometry"/>
                </mxCell>
            </root>
        </mxGraphModel>
    </diagram>
</mxfile>